<svg width="64" height="64" viewBox="0 0 64 64" fill="none" xmlns="http://www.w3.org/2000/svg">
<path d="M13.333 17.3333H9.99967C8.23156 17.3333 6.53587 18.0357 5.28563 19.2859C4.03539 20.5362 3.33301 22.2319 3.33301 24V54C3.33301 55.7681 4.03539 57.4638 5.28563 58.714C6.53587 59.9643 8.23156 60.6666 9.99967 60.6666H39.9997C41.7678 60.6666 43.4635 59.9643 44.7137 58.714C45.964 57.4638 46.6663 55.7681 46.6663 54V50.6666" stroke="#B80000" stroke-width="6.66667" stroke-linecap="round" stroke-linejoin="round"/>
<path d="M43.3333 10.6667L53.3333 20.6667M57.95 15.95C59.2628 14.6372 60.0004 12.8566 60.0004 11C60.0004 9.14338 59.2628 7.36281 57.95 6.04999C56.6372 4.73717 54.8566 3.99963 53 3.99963C51.1434 3.99963 49.3628 4.73717 48.05 6.04999L20 34V44H30L57.95 15.95Z" stroke="#B80000" stroke-width="6.66667" stroke-linecap="round" stroke-linejoin="round"/>
</svg>
