<svg width="68" height="68" viewBox="0 0 68 68" fill="none" xmlns="http://www.w3.org/2000/svg">
<path d="M27.75 20.25C27.75 19.2611 28.0433 18.2944 28.5927 17.4721C29.1421 16.6499 29.923 16.009 30.8366 15.6306C31.7502 15.2522 32.7556 15.1531 33.7255 15.3461C34.6954 15.539 35.5863 16.0152 36.2855 16.7145C36.9848 17.4137 37.461 18.3046 37.6539 19.2745C37.8469 20.2445 37.7479 21.2498 37.3694 22.1634C36.991 23.077 36.3501 23.8579 35.5279 24.4073C34.7056 24.9568 33.7389 25.25 32.75 25.25C31.4239 25.25 30.1522 24.7232 29.2145 23.7855C28.2768 22.8479 27.75 21.5761 27.75 20.25ZM67.75 34C67.75 40.6751 65.7706 47.2003 62.0621 52.7505C58.3536 58.3007 53.0826 62.6265 46.9156 65.1809C40.7486 67.7354 33.9626 68.4038 27.4157 67.1015C20.8689 65.7993 14.8552 62.5849 10.1352 57.8649C5.41514 53.1448 2.20076 47.1312 0.898512 40.5843C-0.403739 34.0374 0.264623 27.2514 2.81908 21.0844C5.37354 14.9174 9.69936 9.6464 15.2495 5.9379C20.7997 2.2294 27.3249 0.25 34 0.25C42.948 0.259926 51.5267 3.81891 57.8539 10.1461C64.1811 16.4733 67.7401 25.052 67.75 34ZM60.25 34C60.25 28.8082 58.7105 23.7331 55.8261 19.4163C52.9417 15.0995 48.842 11.735 44.0455 9.74816C39.2489 7.76136 33.9709 7.24152 28.8789 8.25439C23.7869 9.26725 19.1096 11.7673 15.4385 15.4384C11.7673 19.1096 9.26726 23.7869 8.2544 28.8789C7.24154 33.9709 7.76138 39.2489 9.74818 44.0454C11.735 48.842 15.0995 52.9417 19.4163 55.8261C23.7331 58.7105 28.8083 60.25 34 60.25C40.9597 60.2426 47.6321 57.4745 52.5533 52.5533C57.4746 47.6321 60.2426 40.9596 60.25 34ZM37.75 45.4625V35.25C37.75 33.5924 37.0915 32.0027 35.9194 30.8306C34.7473 29.6585 33.1576 29 31.5 29C30.6144 28.9987 29.7569 29.3108 29.0794 29.8812C28.4019 30.4515 27.9481 31.2432 27.7984 32.116C27.6487 32.9889 27.8127 33.8866 28.2614 34.6501C28.7101 35.4136 29.4146 35.9936 30.25 36.2875V46.5C30.25 48.1576 30.9085 49.7473 32.0806 50.9194C33.2527 52.0915 34.8424 52.75 36.5 52.75C37.3856 52.7513 38.2431 52.4392 38.9206 51.8688C39.5981 51.2985 40.0519 50.5068 40.2016 49.634C40.3513 48.7611 40.1873 47.8634 39.7386 47.0999C39.2899 46.3364 38.5854 45.7564 37.75 45.4625Z" fill="#B80000"/>
</svg>
