<svg width="41" height="40" viewBox="0 0 41 40" fill="none" xmlns="http://www.w3.org/2000/svg">
<path d="M8.7347 8.33333H18.7347C19.6514 8.33333 20.4014 7.58333 20.4014 6.66667C20.4014 5.75 19.6514 5 18.7347 5H8.7347C6.90137 5 5.40137 6.5 5.40137 8.33333V31.6667C5.40137 33.5 6.90137 35 8.7347 35H18.7347C19.6514 35 20.4014 34.25 20.4014 33.3333C20.4014 32.4167 19.6514 31.6667 18.7347 31.6667H8.7347V8.33333Z" fill="#B80000"/>
<path d="M34.818 19.4167L30.168 14.7667C30.0521 14.6476 29.9033 14.5658 29.7406 14.5318C29.578 14.4978 29.4089 14.513 29.2549 14.5757C29.101 14.6383 28.9693 14.7455 28.8766 14.8834C28.7839 15.0214 28.7345 15.1838 28.7347 15.35V18.3333H17.068C16.1514 18.3333 15.4014 19.0833 15.4014 20C15.4014 20.9167 16.1514 21.6667 17.068 21.6667H28.7347V24.65C28.7347 25.4 29.6347 25.7667 30.1514 25.2333L34.8014 20.5833C35.1347 20.2667 35.1347 19.7333 34.818 19.4167Z" fill="#B80000"/>
</svg>
