<svg xmlns="http://www.w3.org/2000/svg" width="473" height="484" viewBox="0 0 473 484"><defs><style>.a{fill:#a70f00;}.b{font-size:150px;font-family:MrDafoe-Regular, Mr Dafoe;}.b,.c,.d{fill:#fff;}.d{fill-rule:evenodd;}</style></defs><rect class="a" width="473" height="473" rx="100"/><text class="b" transform="translate(33 221)">Divina</text><path class="c" d="M164.44,292.09a2.6,2.6,0,0,0-2.52,2.33V306.1h-5V294.54a2.36,2.36,0,0,0-1.31-2.16,2.58,2.58,0,0,0-3.74,2V306.1h-3.78V294.54a2.36,2.36,0,0,0-1.31-2.16,2.58,2.58,0,0,0-3.74,2v15.1l6.31,7.94v32.76a4.7,4.7,0,0,0,3.91,4.69c3.65.55,6.18-1.55,6.18-4.89V317.73a8.66,8.66,0,0,0,7.57-8.47V294.42A2.6,2.6,0,0,0,164.44,292.09Zm8.83,2.18v28h5v28a4.65,4.65,0,0,0,5.23,4.67,4.31,4.31,0,0,0,3.6-4.61V280.25A13.7,13.7,0,0,0,173.27,294.27Zm34.06-4.84c-7.06,0-12.61,7-12.61,15.42-.51,5.61,2.52,10.75,7.57,14v31.18a4.79,4.79,0,0,0,4.38,4.76c3.39.3,5.71-1.63,5.71-4.64v-31.3c5-3.27,8.07-8.41,7.57-14C220,296.44,214.4,289.43,207.33,289.43Z"/><path class="d" d="M240,309.59v2.75A10.32,10.32,0,0,0,236.55,326a9.77,9.77,0,0,0,3.47,3.66v7.67C240,344.88,245.81,351,253,351h40.37c7.14,0,12.94-6.12,12.94-13.67v-7.67A10.32,10.32,0,0,0,309.73,316a9.74,9.74,0,0,0-3.46-3.66v-2.75c0-15.79-12.12-28.59-27.06-28.59H267.07C252.13,281,240,293.8,240,309.59Zm61.38,8.53H245.07a2.42,2.42,0,0,0-2.3,1.59,2.65,2.65,0,0,0,2.17,3.71h56.34a2.41,2.41,0,0,0,2.29-1.59A2.64,2.64,0,0,0,301.4,318.12Zm-2.16-7.42v-1.15c0-11.67-8.95-21.13-20-21.13H267c-11,0-20,9.46-20,21.13v1.15Zm-11.86,20.15h11.86v6.51a6.06,6.06,0,0,1-5.88,6.22H252.93a6.07,6.07,0,0,1-5.89-6.22v-6.51h30.85l4.74,5.09Z"/></svg>